<?xml version="1.0" standalone="no"?>
<!DOCTYPE svg PUBLIC "-//W3C//DTD SVG 20010904//EN"
 "http://www.w3.org/TR/2001/REC-SVG-20010904/DTD/svg10.dtd">
<svg version="1.0" xmlns="http://www.w3.org/2000/svg"
 width="265.000000pt" height="240.000000pt" viewBox="0 0 265.000000 240.000000"
 preserveAspectRatio="xMidYMid meet">

<g transform="translate(0.000000,240.000000) scale(0.100000,-0.100000)"
fill="#000000" stroke="none">
<path d="M210 2305 c0 -4 172 -295 825 -1395 142 -239 275 -464 296 -499 l37
-63 57 103 c32 57 66 120 77 139 l19 35 -122 270 c-67 149 -184 410 -261 580
-77 171 -166 369 -198 440 -32 72 -72 162 -90 200 -18 39 -45 98 -61 133 l-28
62 -276 0 c-151 0 -275 -2 -275 -5z"/>
<path d="M2224 2028 c-109 -134 -279 -342 -378 -463 -99 -121 -229 -280 -289
-354 l-110 -133 58 -190 c33 -106 62 -184 65 -176 28 52 468 852 528 958 26
47 137 248 237 430 32 58 66 120 77 138 11 17 18 32 15 32 -2 0 -94 -109 -203
-242z"/>
<path d="M2323 2027 c-269 -567 -853 -1810 -853 -1815 0 -14 83 -192 90 -192
7 0 22 37 175 435 54 138 134 347 180 465 46 118 165 426 264 685 100 259 190
492 201 519 38 93 15 54 -57 -97z"/>
</g>
</svg>
